<?xml version="1.0" encoding="UTF-8"?>
<svg id="_レイヤー_1" xmlns="http://www.w3.org/2000/svg" version="1.1" viewBox="0 0 520 100">
  <!-- Generator: Adobe Illustrator 29.7.1, SVG Export Plug-In . SVG Version: 2.1.1 Build 8)  -->
  <defs>
    <style>
      .st0 {
        fill: #231815;
      }
    </style>
  </defs>
  <g>
    <path class="st0" d="M122.3,19.2h14.2c6.5,0,11.4.4,14.2,1.6,6.5,2.4,10.2,8.1,10.2,15.1s-2.8,11-7.3,13.4-11,3.3-19.5,3.3h-6.1v28.9h-6.1V19.2h.4ZM128.4,25.3v21.2h10.2c5.3,0,9.4,0,12.2-2.4,2-1.6,3.7-4.9,3.7-8.1s-1.6-6.5-4.1-8.1c-2.8-2-6.5-2.4-11.4-2.4h-11,.4Z"/>
    <path class="st0" d="M179.7,21.6c0,2.8-2.4,4.9-4.9,4.9s-4.9-2.4-4.9-4.9,2.4-4.9,4.9-4.9,4.9,2,4.9,4.9ZM171.6,35.5h5.7v46h-5.7v-46Z"/>
    <path class="st0" d="M184.6,35.5h6.9l12.2,17.1,12.2-17.1h6.9l-15.5,22,17.5,24h-7.3l-13.8-19.1-13.8,19.1h-6.9l17.5-24-15.9-22h0Z"/>
    <path class="st0" d="M238.3,21.6c0,2.8-2.4,4.9-4.9,4.9s-4.9-2.4-4.9-4.9,2.4-4.9,4.9-4.9,4.9,2,4.9,4.9ZM230.6,35.5h5.7v46h-5.7v-46Z"/>
    <path class="st0" d="M252.5,59.1c0,10.6,7.3,18.3,17.5,18.3s14.2-5.3,17.5-11l4.9,2.4c-4.5,9.4-11.8,13.8-22,13.8-15.1,0-24-11.8-24-24s9.4-24.4,23.6-24.4,23.6,9.4,23.6,24.8h-41.5.4ZM287.5,53.8c-2.4-9.4-9.4-13.8-17.1-13.8s-14.2,4.5-17.1,13.8h34.2Z"/>
    <path class="st0" d="M308.7,59.1c0,10.6,7.3,18.3,17.5,18.3s14.2-5.3,17.5-11l4.9,2.4c-4.5,9.4-11.8,13.8-22,13.8-15.1,0-24-11.8-24-24s9.4-24.4,23.6-24.4,23.6,9.4,23.6,24.8h-41.5.4ZM343.7,53.8c-2.4-9.4-9.4-13.8-17.1-13.8s-14.2,4.5-17.1,13.8h34.2Z"/>
    <path class="st0" d="M401.5,73.7c-4.9,6.1-11.4,9-18.7,9-13.4,0-23.6-11-23.6-24.4s10.6-24,23.6-24,13.8,3.3,18.3,9.8v-26h5.7v63.9h-5.7v-7.7l.4-.4ZM365.2,58.7c0,9.8,7.7,18.7,17.9,18.7s18.3-6.9,18.3-18.7-7.7-18.7-18.3-18.7-18.3,8.5-18.3,18.7h.4Z"/>
  </g>
  <g>
    <path class="st0" d="M41.2,2.1c0,16.3,0,33,.8,49.2l-10.6,16.3v-.4c-.8-2-1.2-4.9-1.6-7.3-2.4-12.2-4.5-24.4-6.9-36.2L40.8,0h.4v2h0Z"/>
    <polygon class="st0" points="4.1 72.9 6.2 55.4 27.3 61.9 29 69.2 4.1 72.9"/>
    <path class="st0" d="M36.3,72.9l16.3-10.6,51.7.8-24,17.9c-11.4-2-22.8-4.1-34.2-6.1-11.4-2-6.5-1.2-9.8-2h0Z"/>
    <polygon class="st0" points="42 76.6 48.1 97.3 31 99.4 34.7 74.9 42 76.6"/>
  </g>
</svg>