<?xml version="1.0" encoding="UTF-8"?>
<svg id="_レイヤー_1" xmlns="http://www.w3.org/2000/svg" version="1.1" viewBox="0 0 100 100">
  <!-- Generator: Adobe Illustrator 29.7.1, SVG Export Plug-In . SVG Version: 2.1.1 Build 8)  -->
  <defs>
    <style>
      .st0 {
        fill: #231815;
      }
    </style>
  </defs>
  <path class="st0" d="M37,2.1c0,16.3,0,33,.8,49.2l-10.6,16.3v-.4c-.8-2-1.2-4.9-1.6-7.3-2.4-12.2-4.5-24.4-6.9-36.2L36.6,0h.4v2h0Z"/>
  <polygon class="st0" points="-.1 72.9 2 55.4 23.1 61.9 24.8 69.2 -.1 72.9"/>
  <path class="st0" d="M32.1,72.9l16.3-10.6,51.7.8-24,17.9c-11.4-2-22.8-4.1-34.2-6.1-11.4-2-6.5-1.2-9.8-2h0Z"/>
  <polygon class="st0" points="37.8 76.6 43.9 97.3 26.8 99.4 30.5 74.9 37.8 76.6"/>
</svg>